<svg width="1920" height="660" viewBox="0 0 1920 660" fill="none" xmlns="http://www.w3.org/2000/svg">
<path d="M810.09 316.006H794.888V384.783H772.633V316.006H762.759V297.99H772.633V293.603C772.633 282.95 775.663 275.116 781.723 270.103C787.783 265.09 796.925 262.74 809.15 263.053V281.54C803.821 281.435 800.112 282.323 798.022 284.203C795.933 286.083 794.888 289.477 794.888 294.386V297.99H810.09V316.006ZM841.55 268.85V384.783H819.608V268.85H841.55ZM852.883 341.073C852.883 332.3 854.607 324.519 858.055 317.73C861.608 310.941 866.362 305.719 872.317 302.063C878.378 298.407 885.117 296.58 892.535 296.58C899.013 296.58 904.655 297.885 909.462 300.496C914.372 303.107 918.291 306.397 921.216 310.366V297.99H943.314V384.783H921.216V372.093C918.395 376.166 914.477 379.561 909.462 382.276C904.551 384.887 898.856 386.193 892.378 386.193C885.065 386.193 878.378 384.313 872.317 380.553C866.362 376.793 861.608 371.519 858.055 364.73C854.607 357.836 852.883 349.951 852.883 341.073ZM921.216 341.386C921.216 336.06 920.171 331.516 918.082 327.756C915.992 323.892 913.171 320.967 909.618 318.983C906.066 316.894 902.252 315.85 898.177 315.85C894.102 315.85 890.341 316.842 886.893 318.826C883.445 320.811 880.624 323.735 878.43 327.6C876.34 331.36 875.295 335.851 875.295 341.073C875.295 346.295 876.34 350.891 878.43 354.86C880.624 358.724 883.445 361.701 886.893 363.79C890.445 365.879 894.207 366.923 898.177 366.923C902.252 366.923 906.066 365.931 909.618 363.946C913.171 361.857 915.992 358.933 918.082 355.173C920.171 351.309 921.216 346.713 921.216 341.386ZM1080.41 297.99L1055.02 384.783H1031.35L1015.52 324.153L999.695 384.783H975.872L950.326 297.99H972.581L987.94 364.103L1004.55 297.99H1027.75L1044.05 363.946L1059.41 297.99H1080.41ZM1109.52 268.85V384.783H1087.58V268.85H1109.52ZM1207.21 339.506C1207.21 342.64 1207 345.46 1206.58 347.966H1143.11C1143.63 354.233 1145.83 359.142 1149.69 362.693C1153.56 366.244 1158.31 368.02 1163.96 368.02C1172.1 368.02 1177.9 364.521 1181.35 357.523H1205.02C1202.51 365.879 1197.7 372.772 1190.6 378.203C1183.49 383.53 1174.77 386.193 1164.43 386.193C1156.07 386.193 1148.54 384.365 1141.86 380.71C1135.27 376.95 1130.1 371.675 1126.34 364.886C1122.68 358.097 1120.86 350.264 1120.86 341.386C1120.86 332.404 1122.68 324.519 1126.34 317.73C1130 310.941 1135.12 305.719 1141.7 302.063C1148.28 298.407 1155.86 296.58 1164.43 296.58C1172.68 296.58 1180.05 298.355 1186.52 301.906C1193.11 305.457 1198.17 310.523 1201.73 317.103C1205.38 323.579 1207.21 331.046 1207.21 339.506ZM1184.49 333.24C1184.38 327.6 1182.34 323.109 1178.37 319.766C1174.4 316.32 1169.54 314.596 1163.8 314.596C1158.37 314.596 1153.77 316.267 1150.01 319.61C1146.35 322.847 1144.1 327.391 1143.27 333.24H1184.49ZM1251.75 386.193C1244.65 386.193 1238.27 384.94 1232.63 382.433C1226.99 379.822 1222.5 376.323 1219.15 371.936C1215.91 367.55 1214.14 362.693 1213.82 357.366H1235.92C1236.34 360.709 1237.96 363.476 1240.78 365.67C1243.71 367.863 1247.31 368.96 1251.59 368.96C1255.77 368.96 1259.01 368.124 1261.31 366.453C1263.71 364.782 1264.92 362.641 1264.92 360.03C1264.92 357.21 1263.45 355.121 1260.53 353.763C1257.71 352.301 1253.16 350.734 1246.89 349.063C1240.41 347.496 1235.09 345.877 1230.91 344.206C1226.83 342.535 1223.28 339.976 1220.25 336.53C1217.32 333.083 1215.86 328.435 1215.86 322.586C1215.86 317.782 1217.22 313.395 1219.94 309.426C1222.76 305.457 1226.73 302.324 1231.85 300.026C1237.07 297.729 1243.18 296.58 1250.18 296.58C1260.53 296.58 1268.78 299.191 1274.95 304.413C1281.11 309.531 1284.51 316.476 1285.13 325.25H1264.13C1263.82 321.803 1262.36 319.087 1259.74 317.103C1257.24 315.014 1253.84 313.97 1249.56 313.97C1245.59 313.97 1242.5 314.701 1240.31 316.163C1238.22 317.625 1237.18 319.662 1237.18 322.273C1237.18 325.197 1238.64 327.443 1241.56 329.01C1244.49 330.472 1249.03 331.986 1255.2 333.553C1261.47 335.12 1266.64 336.739 1270.71 338.41C1274.79 340.081 1278.29 342.692 1281.22 346.243C1284.25 349.69 1285.81 354.285 1285.92 360.03C1285.92 365.043 1284.51 369.534 1281.69 373.503C1278.97 377.472 1275 380.605 1269.77 382.903C1264.65 385.096 1258.65 386.193 1251.75 386.193ZM1332.45 386.193C1325.35 386.193 1318.98 384.94 1313.33 382.433C1307.69 379.822 1303.2 376.323 1299.85 371.936C1296.62 367.55 1294.84 362.693 1294.53 357.366H1316.62C1317.04 360.709 1318.66 363.476 1321.48 365.67C1324.41 367.863 1328.01 368.96 1332.3 368.96C1336.48 368.96 1339.72 368.124 1342.01 366.453C1344.42 364.782 1345.62 362.641 1345.62 360.03C1345.62 357.21 1344.16 355.121 1341.23 353.763C1338.41 352.301 1333.86 350.734 1327.6 349.063C1321.12 347.496 1315.79 345.877 1311.61 344.206C1307.53 342.535 1303.98 339.976 1300.95 336.53C1298.03 333.083 1296.56 328.435 1296.56 322.586C1296.56 317.782 1297.92 313.395 1300.64 309.426C1303.46 305.457 1307.43 302.324 1312.55 300.026C1317.77 297.729 1323.89 296.58 1330.89 296.58C1341.23 296.58 1349.48 299.191 1355.65 304.413C1361.81 309.531 1365.21 316.476 1365.84 325.25H1344.84C1344.52 321.803 1343.06 319.087 1340.45 317.103C1337.94 315.014 1334.54 313.97 1330.26 313.97C1326.29 313.97 1323.21 314.701 1321.01 316.163C1318.92 317.625 1317.88 319.662 1317.88 322.273C1317.88 325.197 1319.34 327.443 1322.27 329.01C1325.19 330.472 1329.74 331.986 1335.9 333.553C1342.17 335.12 1347.34 336.739 1351.42 338.41C1355.49 340.081 1358.99 342.692 1361.92 346.243C1364.95 349.69 1366.52 354.285 1366.62 360.03C1366.62 365.043 1365.21 369.534 1362.39 373.503C1359.67 377.472 1355.7 380.605 1350.48 382.903C1345.36 385.096 1339.35 386.193 1332.45 386.193Z" fill="black"/>
<path d="M579.44 329.129L566.997 375.163L577.678 364.422C578.266 363.911 581.092 361.155 587.7 354.229C594.307 347.302 598.381 343.597 612.257 343.597C629.546 343.597 636.704 346.787 654.103 343.597C660.799 342.369 666.584 337.021 668.64 334.5L697.602 303.701L608.292 305.126C590.783 306.989 581.606 322.736 579.44 329.129Z" fill="black"/>
<path d="M632.299 419.828C680.134 419.828 718.911 381.065 718.911 333.249C718.911 285.433 680.134 246.67 632.299 246.67C584.465 246.67 545.688 285.433 545.688 333.249C545.688 381.065 584.465 419.828 632.299 419.828Z" stroke="black"/>
</svg>
